<?xml version="1.0" standalone="no"?>
<!DOCTYPE svg PUBLIC "-//W3C//DTD SVG 20010904//EN"
 "http://www.w3.org/TR/2001/REC-SVG-20010904/DTD/svg10.dtd">
<svg version="1.0" xmlns="http://www.w3.org/2000/svg"
 width="171.000000pt" height="171.000000pt" viewBox="0 0 171.000000 171.000000"
 preserveAspectRatio="xMidYMid meet">
<metadata>
Created by potrace 1.14, written by Peter Selinger 2001-2017
</metadata>
<g transform="translate(0.000000,171.000000) scale(0.100000,-0.100000)"
fill="#000000" stroke="none">
<path d="M1027 1653 c-3 -5 -19 -8 -36 -7 -17 1 -29 -1 -28 -5 1 -3 0 -6 -3
-6 -14 -1 -56 -52 -52 -63 2 -7 -1 -19 -8 -27 -9 -11 -9 -15 -1 -15 7 0 9 -4
6 -10 -3 -5 -1 -10 5 -10 6 0 9 -4 6 -9 -3 -4 6 -13 20 -20 14 -6 22 -16 19
-21 -10 -17 18 -38 40 -30 11 4 26 3 32 -2 9 -7 15 -5 19 6 6 16 8 15 27 -1
11 -10 17 -12 13 -6 -4 8 2 17 18 24 14 7 28 20 32 31 3 10 10 15 16 12 6 -4
6 1 -1 14 -9 17 -8 23 6 31 10 6 12 11 6 11 -7 0 -13 9 -13 21 0 13 -4 18 -12
13 -8 -5 -9 -2 -5 10 4 10 3 15 -3 11 -6 -4 -15 7 -21 25 -10 26 -13 29 -27
18 -13 -11 -15 -11 -9 2 5 9 3 9 -5 -2 -11 -15 -13 -15 -23 -1 -7 9 -15 12
-18 6z"/>
<path d="M1344 1581 c-28 -24 -27 -44 3 -77 30 -32 47 -36 77 -18 41 25 11
107 -40 110 -11 1 -29 -6 -40 -15z"/>
<path d="M780 1300 c-121 -35 -165 -130 -74 -160 40 -13 43 -25 12 -41 -13 -7
-53 -34 -89 -60 -36 -27 -79 -53 -95 -60 -73 -29 -148 -11 -258 60 -90 59
-116 56 -170 -19 -29 -41 -38 -47 -61 -42 -23 4 -26 2 -23 -19 3 -25 42 -51
64 -42 7 3 27 27 45 54 48 76 58 78 139 29 98 -59 157 -79 221 -76 30 2 62 7
73 11 11 5 -7 -25 -43 -74 -74 -101 -127 -194 -159 -280 -26 -72 -40 -194 -24
-214 5 -6 8 -20 7 -29 -2 -10 1 -18 6 -18 6 0 8 -4 4 -10 -10 -15 33 -94 73
-133 60 -58 135 -90 219 -93 40 -2 91 3 115 10 39 11 48 10 95 -11 199 -91
534 -41 711 104 183 150 182 403 -2 666 -25 35 -42 67 -39 71 4 3 1 6 -5 6 -7
0 -12 5 -12 11 0 6 -7 17 -15 26 -8 8 -13 19 -10 24 4 5 1 9 -4 9 -6 0 -11 7
-11 15 0 8 -5 15 -11 15 -5 0 -7 5 -4 10 3 6 0 10 -8 10 -14 0 -49 33 -45 41
2 2 1 3 -1 1 -3 -1 -15 5 -28 13 -15 10 -23 12 -23 4 0 -8 -4 -9 -13 0 -8 6
-17 8 -20 5 -4 -4 -17 -8 -29 -9 -13 -1 -29 -3 -35 -4 -7 0 -13 -8 -13 -16 0
-9 -6 -12 -15 -9 -10 4 -18 -4 -26 -22 -16 -42 -20 -96 -7 -87 8 4 9 0 5 -11
-4 -10 -3 -15 3 -11 6 3 10 0 10 -7 0 -8 9 -20 19 -28 11 -7 18 -17 16 -20 -2
-4 11 -6 30 -5 19 0 35 -2 35 -5 0 -4 16 -5 35 -4 26 2 34 0 28 -9 -4 -8 -1
-7 10 1 9 8 22 10 29 6 7 -4 24 -9 37 -10 14 -2 27 -8 29 -14 2 -5 10 -10 17
-10 29 0 110 -116 140 -200 23 -64 29 -106 28 -181 -3 -183 -161 -320 -433
-375 -109 -22 -250 -15 -333 16 l-58 22 58 40 c71 50 115 97 154 165 111 193
110 450 -1 686 -15 33 -20 56 -15 75 13 53 10 116 -9 144 -36 55 -167 91 -246
68z m113 -39 c43 -1 77 -41 73 -86 -2 -21 -11 -44 -19 -53 -14 -13 -21 -13
-64 2 -26 9 -57 19 -67 21 -53 12 -87 28 -96 45 -8 15 -5 22 18 38 33 24 79
39 107 36 11 -1 33 -3 48 -3z m-12 -225 c-7 -9 -45 -37 -85 -63 -196 -129
-274 -258 -264 -437 8 -138 66 -259 169 -354 27 -25 47 -48 44 -50 -15 -16
-83 -30 -126 -27 -100 8 -191 72 -230 162 -80 187 69 512 344 750 40 34 55 42
88 41 22 0 43 2 46 6 14 13 26 -13 14 -28z m106 -58 c71 -78 116 -301 90 -450
-17 -95 -89 -231 -158 -294 -19 -18 -54 -44 -78 -59 -51 -31 -66 -28 -130 30
-124 113 -176 307 -122 460 31 88 95 164 191 225 25 16 72 47 105 69 33 22 65
40 71 40 6 1 20 -9 31 -21z"/>
</g>
</svg>
