<svg width="64" height="50" viewBox="0 0 64 50" fill="none" xmlns="http://www.w3.org/2000/svg">
<path d="M2.59214 41.9876C1.93611 41.9987 1.3768 42.2676 0.96834 42.8591H0.94685V40.0514H0V47.7745H0.892982V47.0754H0.914473C1.10803 47.3865 1.50588 47.9354 2.46305 47.9354C4.37739 47.9354 4.93699 46.1391 4.93699 44.7948C4.93699 43.2146 4.08713 41.9876 2.59214 41.9876ZM2.44156 47.1188C1.83941 47.1188 0.903586 46.7202 0.903586 45.2249C0.903586 44.3109 1.05388 42.8374 2.42021 42.8374C3.88283 42.8374 3.95805 44.2248 3.95805 44.9455C3.95805 46.1815 3.47423 47.1188 2.44156 47.1188Z" fill="black"/>
<path d="M9.89524 46.7957V43.5585C9.89524 42.1176 8.26027 41.9879 7.80883 41.9879C6.42115 41.9879 5.52859 42.515 5.48547 43.8597H6.3571C6.42115 43.4285 6.57172 42.7734 7.64723 42.7734C8.54021 42.7734 8.96988 43.0957 8.96988 43.6872C8.96988 44.2461 8.70139 44.3328 8.47518 44.3544L6.91571 44.5472C5.34578 44.7414 5.20581 45.8387 5.20581 46.312C5.20581 47.2792 5.93691 47.9354 6.9693 47.9354C8.06658 47.9354 8.63636 47.4195 9.00183 47.0215C9.03421 47.4517 9.16315 47.8812 10.0023 47.8812C10.2173 47.8812 10.3571 47.8173 10.5187 47.7741V47.0855C10.411 47.1072 10.2925 47.1288 10.2066 47.1288C10.0134 47.1288 9.89524 47.0318 9.89524 46.7957ZM8.94853 45.8275C8.94853 46.5809 8.08821 47.1498 7.20626 47.1498C6.49637 47.1498 6.18419 46.7848 6.18419 46.1713C6.18419 45.4619 6.92631 45.3219 7.38892 45.257C8.56128 45.1064 8.7981 45.0206 8.94839 44.9018V45.8275H8.94853Z" fill="black"/>
<path d="M13.5734 41.9877C12.6054 41.9877 12.0785 42.6437 11.874 42.9443H11.8527V42.1493H10.96V47.7741H11.9061V44.7086C11.9061 43.1815 12.8528 42.8372 13.3905 42.8372C14.3156 42.8372 14.5952 43.3322 14.5952 44.311V47.7741H15.5418V43.9453C15.5418 42.3421 14.4447 41.9877 13.5734 41.9877Z" fill="black"/>
<path d="M20.1235 42.9447H20.102C19.876 42.6226 19.4457 41.9885 18.424 41.9885C16.9293 41.9885 16.0796 43.2147 16.0796 44.7956C16.0796 46.1391 16.6386 47.9361 18.5532 47.9361C19.1022 47.9361 19.7474 47.7639 20.156 46.9996H20.1778V47.7748H21.07V40.0521H20.124V42.9446H20.1235V42.9447ZM18.5746 47.1189C17.5419 47.1189 17.058 46.1817 17.058 44.9459C17.058 44.2247 17.1333 42.8374 18.5964 42.8374C19.9619 42.8374 20.1124 44.3112 20.1124 45.2252C20.1124 46.7204 19.1769 47.1189 18.5746 47.1189Z" fill="black"/>
<path d="M24.4579 42.8372C25.2539 42.8372 25.6736 43.2893 25.7918 44.042H26.706C26.6307 43.0635 26.0712 41.9877 24.598 41.9877C22.7374 41.9877 21.8985 43.3751 21.8985 45.1173C21.8985 46.7414 22.8341 47.9354 24.415 47.9354C26.0609 47.9354 26.6095 46.6764 26.706 45.7843H25.7918C25.6305 46.6444 25.0821 47.1182 24.4477 47.1182C23.1465 47.1182 22.9094 45.9237 22.9094 44.9562C22.9094 43.9556 23.2858 42.8372 24.4579 42.8372Z" fill="black"/>
<path d="M31.4916 46.7957V43.5585C31.4916 42.1176 29.8573 41.9879 29.4052 41.9879C28.0178 41.9879 27.1252 42.515 27.0821 43.8597H27.9534C28.0182 43.4285 28.1685 42.7734 29.2441 42.7734C30.1366 42.7734 30.5671 43.0957 30.5671 43.6872C30.5671 44.2461 30.2979 44.3328 30.0721 44.3544L28.5129 44.5472C26.9423 44.7414 26.8026 45.8387 26.8026 46.312C26.8026 47.2792 27.5337 47.9354 28.5663 47.9354C29.6633 47.9354 30.2334 47.4195 30.5989 47.0215C30.631 47.4517 30.7598 47.8812 31.5993 47.8812C31.8142 47.8812 31.9542 47.8173 32.1155 47.7741V47.0855C32.0078 47.1072 31.8896 47.1288 31.8038 47.1288C31.6105 47.1288 31.4916 47.0318 31.4916 46.7957ZM30.5452 45.8275C30.5452 46.5809 29.685 47.1498 28.8033 47.1498C28.0927 47.1498 27.7812 46.7848 27.7812 46.1713C27.7812 45.4619 28.5234 45.3219 28.9857 45.257C30.1581 45.1064 30.3949 45.0206 30.5452 44.9018V45.8275Z" fill="black"/>
<path d="M38.3863 41.9877C37.5149 41.9877 37.1386 42.3746 36.6653 42.9023C36.504 42.6011 36.1815 41.9877 35.1709 41.9877C34.1596 41.9877 33.6758 42.6437 33.4713 42.9443H33.4498V42.1493H32.5577V47.7741H33.5041V44.7086C33.5041 43.1815 34.4504 42.8372 34.9877 42.8372C35.6868 42.8372 35.8694 43.4073 35.8694 43.8805V47.7741H36.8162V44.3433C36.8162 43.5898 37.3434 42.8368 38.1397 42.8368C38.9453 42.8368 39.1821 43.364 39.1821 44.1381V47.7738H40.1283V43.8802C40.1284 42.2991 38.9887 41.9877 38.3863 41.9877Z" fill="black"/>
<path d="M43.4946 41.9877C42.4728 41.9877 42.0433 42.6223 41.8174 42.9443H41.7957V42.1493H40.9032V50.0001H41.8493V47.1825H41.8712C42.1185 47.58 42.6133 47.9353 43.3657 47.9353C45.28 47.9353 45.8393 46.1386 45.8393 44.7947C45.8399 43.2146 44.9897 41.9877 43.4946 41.9877ZM43.3446 47.1188C42.7419 47.1188 41.8066 46.7202 41.8066 45.2249C41.8066 44.3109 41.9568 42.8374 43.3231 42.8374C44.786 42.8374 44.8611 44.2248 44.8611 44.9456C44.8611 46.1815 44.3767 47.1188 43.3446 47.1188Z" fill="black"/>
<path d="M20.8779 36.0059C24.4908 36.0059 26.1849 32.7299 26.1849 28.4029C26.1849 25.8812 25.9213 21.0255 20.8029 21.0255C16.0223 21.0255 15.4961 26.1825 15.4961 29.381C15.4961 34.6121 18.7706 36.0059 20.8779 36.0059Z" fill="black"/>
<path d="M63.0543 0H17.658L12.4463 11.2757H15.6457V21.1002H15.7213C17.151 19.0304 19.1083 18.0893 21.4045 18.0514C26.637 18.0514 29.6096 22.3432 29.6096 27.8759C29.6096 31.663 28.3384 36.4723 24.3477 38.2041H37.0272C33.6502 36.8149 31.7329 33.3521 31.7329 29.0041C31.7329 22.9069 34.6681 18.0514 41.1795 18.0514C46.3365 18.0514 48.2933 21.8159 48.5569 25.2407H45.358C44.9451 22.6059 43.4752 21.0257 40.6899 21.0257C36.5892 21.0257 35.2712 24.9387 35.2712 28.44C35.2712 31.8277 36.1 36.006 40.6544 36.006C42.8743 36.006 44.7929 34.349 45.358 31.3381H48.5569C48.5552 31.3509 48.5534 31.364 48.5521 31.3774L63.0543 0Z" fill="black"/>
<path d="M45.3966 38.2041L46.0076 36.8824C45.4504 37.4107 44.7852 37.8641 43.9972 38.2041H45.3966Z" fill="black"/>
<path d="M12.3335 11.5203L0 38.204H12.3335V11.5203Z" fill="black"/>
<path d="M15.4585 38.204H17.9539C16.6632 37.5462 15.9577 36.5381 15.5334 35.8544H15.4585V38.204Z" fill="black"/>
</svg>
