<svg width="50" height="50" viewBox="0 0 50 50" fill="none" xmlns="http://www.w3.org/2000/svg">
<path d="M24.7962 29.6748C27.2657 29.6748 29.2677 27.6728 29.2677 25.2032C29.2677 22.7337 27.2657 20.7317 24.7962 20.7317C22.3267 20.7317 20.3247 22.7337 20.3247 25.2032C20.3247 27.6728 22.3267 29.6748 24.7962 29.6748Z" fill="black"/>
<path d="M30.3861 14.2275H19.2074C17.5814 14.2275 16.1587 14.7357 15.244 15.6503C14.3294 16.5649 13.8213 17.9877 13.8213 19.6137V30.7926C13.8213 32.4186 14.3294 33.8414 15.3457 34.8576C16.3619 35.7723 17.683 36.2804 19.309 36.2804H30.3861C32.0121 36.2804 33.4348 35.7723 34.3495 34.8576C35.3657 33.943 35.8738 32.5202 35.8738 30.8942V19.7153C35.8738 18.0893 35.3657 16.7682 34.4511 15.7519C33.4348 14.7357 32.1137 14.2275 30.3861 14.2275ZM24.7968 32.1137C20.935 32.1137 17.8863 28.9633 17.8863 25.2031C17.8863 21.3414 21.0366 18.2926 24.7968 18.2926C28.5569 18.2926 31.8088 21.3414 31.8088 25.2031C31.8088 29.0649 28.6585 32.1137 24.7968 32.1137ZM32.0121 19.6137C31.0975 19.6137 30.3861 18.9023 30.3861 17.9877C30.3861 17.0731 31.0975 16.3617 32.0121 16.3617C32.9267 16.3617 33.6381 17.0731 33.6381 17.9877C33.6381 18.9023 32.9267 19.6137 32.0121 19.6137Z" fill="black"/>
<path d="M24.9997 0C11.1787 0 0 11.1789 0 25C0 38.8211 11.1787 50 24.9997 50C38.8206 50 49.9993 38.8211 49.9993 25C50.1009 11.1789 38.8206 0 24.9997 0ZM38.3125 30.8943C38.3125 33.2317 37.4995 35.2642 36.0767 36.687C34.654 38.1098 32.6215 38.8211 30.3858 38.8211H19.3087C17.0729 38.8211 15.0404 38.1098 13.6177 36.687C12.0933 35.2642 11.382 33.2317 11.382 30.8943V19.7154C11.382 15.0407 14.5323 11.7886 19.3087 11.7886H30.4874C32.8248 11.7886 34.7556 12.6016 36.1784 14.0244C37.6011 15.4472 38.3125 17.3781 38.3125 19.7154V30.8943V30.8943Z" fill="black"/>
</svg>
