<svg width="72" height="52" viewBox="0 0 72 52" fill="none" xmlns="http://www.w3.org/2000/svg">
<path d="M32.0659 1L27.7624 1.10624L25.4762 1.24611H23.7279L22.1141 1.37521H19.9623L14.045 1.77867L12.0277 2.00998C9.75763 2.28298 7.92999 2.44302 5.97593 3.80131C3.27817 5.67603 2.54657 7.86005 1.99384 10.9236L1.71142 12.4029L1.63477 13.4788L1.39807 15.0926V16.4375L1.13448 19.1272L1 21.5479V26.7928V30.5584L1.13448 32.1722V33.3825L1.38059 35.6688L1.55542 38.0895C2.07453 41.8282 2.24667 45.4982 5.57247 47.9768C7.55747 49.4561 8.85793 49.6686 11.2208 49.9631L13.776 50.3222H15.1209L17.945 50.5965L26.5521 50.8655L28.5693 51H43.9006L46.1868 50.8655H48.3386L50.4903 50.731L53.0455 50.5965H54.5248L57.618 50.3222H58.9628L61.518 49.9631C64.0356 49.6484 65.5284 49.3378 67.5685 47.6634C70.5097 45.2481 70.7262 41.4314 71.2009 37.955L71.3583 35.6688L71.6044 32.4411L71.7389 30.4239V26.2548V21.5479L71.6044 19.9341V18.7237L71.3408 16.4375V15.0926L71.1229 13.6133C70.6885 10.4327 70.4317 7.13249 67.9612 4.76019C65.8713 2.75368 63.6079 2.2924 60.8456 2.02477L58.9628 1.77329H57.618L54.3904 1.49759L52.7765 1.37521H50.6248L48.3386 1.23535H46.5903L44.9764 1.10624H41.8833L39.5971 1H32.0659ZM47.8006 25.8514C47.4321 26.5494 46.8512 26.7148 46.1868 27.09L42.5557 29.1611L39.3294 31.029L33.2763 34.4382L29.1073 36.7446L28.9728 34.1894V29.8859V15.3616L31.528 16.6311L35.5625 18.912L42.2975 22.7502L47.8006 25.8514Z" fill="black" stroke="black" stroke-width="0.0846668"/>
</svg>
