<svg width="52" height="52" viewBox="0 0 52 52" fill="none" xmlns="http://www.w3.org/2000/svg">
<path d="M22.133 51V33.2148H15.7571V26.1678H22.133C22.133 21.6443 21.3242 16.9362 24.8309 13.4295C25.9417 12.3188 27.0054 11.6107 28.5088 11.1409C29.7571 10.7517 30.586 10.7383 31.8645 10.7315L37.5692 11.0671V17.7785C35.8679 17.7785 32.5524 17.7248 31.4417 19.198C30.5491 20.3792 30.8578 24.5638 30.8578 26.1678H37.5692C37.539 27.5235 37.1732 32.1208 36.0826 32.8725C35.3142 33.3993 31.9383 33.2148 30.8578 33.2148V51C34.0256 50.7349 37.6195 49.2752 40.2538 47.5235C54.3007 38.2047 55.8276 17.8389 42.9383 6.80537C41.0558 5.19128 38.5491 3.58725 36.2269 2.69799C33.794 1.76846 31.1229 1.0302 28.5088 1H24.4819C15.6799 1.04027 7.07255 7.23154 3.44504 15.094C-2.15563 27.2315 2.06249 42.0101 14.0793 48.4362C16.5793 49.7718 19.2773 50.8658 22.133 51Z" fill="black" stroke="black" stroke-width="0.0846668"/>
</svg>
