<svg width="50" height="50" viewBox="0 0 50 50" fill="none" xmlns="http://www.w3.org/2000/svg">
<path d="M36.6862 35.2214C36.6862 34.5269 36.3607 33.9735 35.7096 33.5612C31.5213 31.0655 26.671 29.8177 21.1589 29.8177C18.2726 29.8177 15.1584 30.1866 11.8164 30.9245C10.9049 31.1198 10.4492 31.684 10.4492 32.6172C10.4492 33.0512 10.5957 33.4256 10.8887 33.7402C11.1816 34.0549 11.5668 34.2122 12.0443 34.2122C12.1528 34.2122 12.5543 34.1254 13.2487 33.9518C16.1133 33.3659 18.75 33.0729 21.1589 33.0729C26.0634 33.0729 30.3711 34.1905 34.082 36.4258C34.4944 36.6645 34.8524 36.7839 35.1562 36.7839C35.5686 36.7839 35.9266 36.6374 36.2305 36.3444C36.5343 36.0514 36.6862 35.6771 36.6862 35.2214ZM39.8112 28.2227C39.8112 27.3546 39.4314 26.6927 38.6719 26.237C33.5286 23.1771 27.5825 21.6471 20.8333 21.6471C17.513 21.6471 14.2253 22.1029 10.9701 23.0143C9.92839 23.2964 9.40755 23.9909 9.40755 25.0977C9.40755 25.6402 9.59744 26.1013 9.97721 26.4811C10.357 26.8609 10.8181 27.0508 11.3607 27.0508C11.5126 27.0508 11.9141 26.964 12.5651 26.7904C15.2127 26.0742 17.9362 25.7161 20.7357 25.7161C26.7904 25.7161 32.0855 27.0616 36.6211 29.7526C37.1419 30.0347 37.5543 30.1758 37.8581 30.1758C38.4006 30.1758 38.8618 29.9859 39.2415 29.6061C39.6213 29.2263 39.8112 28.7652 39.8112 28.2227ZM43.3268 20.1497C43.3268 19.1298 42.8928 18.3702 42.0247 17.8711C39.2904 16.2869 36.1111 15.0879 32.487 14.2741C28.8628 13.4603 25.1411 13.0534 21.3216 13.0534C16.8945 13.0534 12.9449 13.5634 9.47266 14.5833C8.97352 14.7352 8.55577 15.0119 8.2194 15.4134C7.88303 15.8149 7.71484 16.3411 7.71484 16.9922C7.71484 17.6649 7.93728 18.2292 8.38216 18.6849C8.82704 19.1406 9.38585 19.3685 10.0586 19.3685C10.2973 19.3685 10.7313 19.2817 11.3607 19.1081C14.247 18.3051 17.5781 17.9036 21.3542 17.9036C24.8047 17.9036 28.163 18.2726 31.429 19.0104C34.6951 19.7483 37.4457 20.7791 39.681 22.1029C40.1367 22.3633 40.5707 22.4935 40.9831 22.4935C41.6124 22.4935 42.1604 22.271 42.627 21.8262C43.0935 21.3813 43.3268 20.8225 43.3268 20.1497ZM50 25C50 29.5356 48.8824 33.7185 46.6471 37.5488C44.4119 41.3791 41.3791 44.4119 37.5488 46.6471C33.7185 48.8824 29.5356 50 25 50C20.4644 50 16.2815 48.8824 12.4512 46.6471C8.62088 44.4119 5.58811 41.3791 3.35286 37.5488C1.11762 33.7185 0 29.5356 0 25C0 20.4644 1.11762 16.2815 3.35286 12.4512C5.58811 8.62088 8.62088 5.58811 12.4512 3.35286C16.2815 1.11762 20.4644 0 25 0C29.5356 0 33.7185 1.11762 37.5488 3.35286C41.3791 5.58811 44.4119 8.62088 46.6471 12.4512C48.8824 16.2815 50 20.4644 50 25Z" fill="black"/>
</svg>
