<svg width="51" height="50" viewBox="0 0 51 50" fill="none" xmlns="http://www.w3.org/2000/svg">
<path fill-rule="evenodd" clip-rule="evenodd" d="M50.0039 13.8483C50.0039 13.3483 49.9969 12.8413 49.983 12.3412C49.9552 11.2439 49.8858 10.1397 49.6913 9.05625C49.4969 7.95895 49.1705 6.93109 48.6635 5.93101C48.1634 4.95177 47.5106 4.04892 46.7328 3.27109C45.9549 2.49325 45.0521 1.84042 44.0728 1.34038C43.0728 0.833398 42.0519 0.506984 40.9545 0.312524C39.8711 0.118065 38.7669 0.0555598 37.6696 0.0208349C37.1626 0.01389 36.6556 0.00694498 36.1556 0C35.5583 0 34.961 0 34.3638 0H15.6401C15.0428 0 14.4456 0 13.8483 0C13.3483 0 12.8413 0.00694498 12.3412 0.0208349C11.2439 0.0486149 10.1397 0.118065 9.05625 0.312524C7.95895 0.513929 6.93109 0.833398 5.93796 1.34733C4.95177 1.84736 4.05587 2.50019 3.27803 3.27803C2.50019 4.05587 1.84042 4.95177 1.34038 5.93796C0.833398 6.93804 0.506984 7.95895 0.312524 9.0632C0.118065 10.1466 0.0555598 11.2509 0.0208349 12.3482C0.01389 12.8482 0.00694498 13.3483 0 13.8483C0 14.4456 0 15.0428 0 15.6401V34.3568C0 34.9541 0 35.5514 0 36.1486C0 36.6487 0.00694498 37.1556 0.0208349 37.6557C0.0486149 38.753 0.118065 39.8572 0.312524 40.9407C0.506984 42.038 0.833398 43.0658 1.34038 44.0659C1.84042 45.0451 2.49325 45.948 3.27109 46.7258C4.04892 47.5037 4.95177 48.1565 5.93101 48.6565C6.93109 49.1635 7.952 49.4899 9.04931 49.6844C10.1327 49.8788 11.237 49.9413 12.3343 49.9761C12.8343 49.99 13.3413 49.9969 13.8413 49.9969C14.4386 50.0039 15.0359 49.9969 15.6332 49.9969H34.3499C34.9471 49.9969 35.5444 49.9969 36.1417 49.9969C36.6417 49.9969 37.1487 49.99 37.6487 49.9761C38.746 49.9483 39.8503 49.8788 40.9337 49.6844C42.031 49.4899 43.0589 49.1635 44.052 48.6565C45.0312 48.1565 45.9341 47.5037 46.7119 46.7258C47.4898 45.948 48.1426 45.0521 48.6426 44.0659C49.1496 43.0658 49.476 42.0449 49.6705 40.9407C49.865 39.8572 49.9275 38.753 49.9622 37.6557C49.9761 37.1556 49.983 36.6487 49.983 36.1486C49.99 35.5514 49.983 34.9541 49.983 34.3568V15.6401C50.0039 15.0428 50.0039 14.4456 50.0039 13.8483ZM36.607 32.5372C36.607 33.1692 36.6 33.7457 36.4681 34.3777C36.3361 34.9958 36.1 35.5722 35.7389 36.0931C35.3777 36.6139 34.9124 37.0376 34.3707 37.357C33.8221 37.6835 33.2456 37.864 32.6345 37.989C31.4816 38.2182 30.6968 38.2738 29.9537 38.1279C29.2384 37.9821 28.6342 37.6557 28.148 37.2112C27.4327 36.5514 26.9812 35.6625 26.884 34.7388C26.7729 33.6484 27.134 32.4886 27.9466 31.6274C28.3564 31.1969 28.8772 30.8565 29.5717 30.5857C30.294 30.3079 31.0927 30.1343 32.3219 29.8912C32.6484 29.8287 32.9678 29.7592 33.2942 29.6967C33.7179 29.6134 34.086 29.5023 34.3777 29.1411C34.6763 28.78 34.6763 28.3355 34.6763 27.9049V16.8902C34.6763 16.0498 34.3013 15.8207 33.4956 15.9735C32.9192 16.0846 20.5641 18.5778 20.5641 18.5778C19.8696 18.7445 19.6196 18.9737 19.6196 19.8418V35.975C19.6196 36.607 19.5848 37.1834 19.4529 37.8154C19.3209 38.4335 19.0848 39.01 18.7237 39.5308C18.3625 40.0517 17.8972 40.4753 17.3555 40.7948C16.8069 41.1212 16.2304 41.3087 15.6193 41.4338C14.4664 41.6629 13.6816 41.7185 12.9385 41.5727C12.2232 41.4268 11.619 41.0934 11.1328 40.649C10.4175 39.9892 10.0008 39.1002 9.8966 38.1766C9.78548 37.0862 10.1119 35.9264 10.9314 35.0652C11.3412 34.6346 11.862 34.2943 12.5565 34.0235C13.2788 33.7457 14.0775 33.572 15.3067 33.329C15.6332 33.2665 15.9526 33.197 16.279 33.1345C16.7027 33.0512 17.0708 32.94 17.3624 32.5789C17.6541 32.2178 17.6889 31.7941 17.6889 31.3635C17.6889 27.9466 17.6889 12.7649 17.6889 12.7649C17.6889 12.5149 17.7097 12.3482 17.7236 12.2648C17.7861 11.8759 17.9389 11.5356 18.2236 11.2995C18.4598 11.105 18.7653 10.9661 19.1473 10.8828H19.1543L34.0304 7.86866C34.1624 7.84088 35.2319 7.65337 35.3569 7.63948C36.1625 7.57003 36.6139 8.09785 36.6139 8.95208L36.607 32.5372Z" fill="black"/>
</svg>
