<svg width="638" height="238" viewBox="0 0 638 238" fill="none" xmlns="http://www.w3.org/2000/svg">
<path d="M267.56 203.051C267.56 212.638 263.881 220.832 256.521 227.632C249.272 234.321 240.519 237.666 230.259 237.666C224.238 237.666 217.045 235.826 208.682 232.147C206.452 231.144 204.779 230.642 203.664 230.642C202.326 230.642 201.489 232.259 201.155 235.492C201.043 237.164 200.318 238 198.98 238C197.865 238 197.307 237.331 197.307 235.993C197.307 235.102 197.363 234.433 197.475 233.987C198.367 227.187 198.813 220.888 198.813 215.091C198.813 213.976 198.701 210.855 198.478 205.727C198.367 205.058 198.311 204.166 198.311 203.051C198.311 201.379 198.98 200.543 200.318 200.543C201.433 200.543 202.214 201.881 202.66 204.556C205.559 224.4 214.982 234.321 230.929 234.321C237.731 234.321 242.972 232.426 246.652 228.636C250.443 224.734 252.339 219.271 252.339 212.248C252.339 206.005 250.499 200.71 246.819 196.363C243.251 191.903 237.062 187.5 228.252 183.152C217.659 177.913 210.299 172.84 206.173 167.935C202.047 163.03 199.984 156.955 199.984 149.709C199.984 140.456 202.939 132.819 208.849 126.8C214.871 120.78 222.454 117.77 231.598 117.77C235.389 117.77 240.63 119.052 247.321 121.616C249.663 122.508 251.391 122.954 252.506 122.954C253.733 122.954 254.513 122.731 254.848 122.285C255.294 121.839 255.684 120.668 256.019 118.773C256.242 117.658 256.855 117.101 257.859 117.101C258.974 117.101 259.532 117.77 259.532 119.107C259.532 119.999 259.476 120.668 259.364 121.114C259.03 123.79 258.862 127.022 258.862 130.813C258.862 136.164 259.141 140.4 259.699 143.521L259.866 146.197C259.978 147.423 259.476 148.036 258.361 148.036C257.134 148.036 256.298 146.754 255.852 144.19C254.625 137.613 251.726 132.151 247.154 127.803C242.582 123.344 237.452 121.114 231.765 121.114C226.189 121.114 221.729 122.898 218.383 126.465C215.149 130.032 213.533 134.882 213.533 141.013C213.533 148.148 215.93 153.889 220.725 158.237C223.401 160.689 229.2 164.145 238.121 168.604C248.603 173.844 256.13 179.195 260.702 184.657C265.274 190.008 267.56 196.14 267.56 203.051Z" fill="white"/>
<path d="M344.691 190.693C344.691 191.473 343.018 191.864 339.673 191.864C339.561 191.864 339.004 191.808 338 191.696C336.997 191.696 336.049 191.696 335.157 191.696H322.779C320.883 191.696 319.656 191.752 319.099 191.864L316.422 192.031C313.969 192.142 312.742 191.752 312.742 190.86C312.742 190.191 313.69 189.801 315.586 189.69C319.266 189.578 321.217 189.077 321.44 188.185C321.664 187.627 321.775 185.788 321.775 182.667V152.065H289.827V186.513C290.05 187.739 290.496 188.519 291.165 188.854C291.945 189.188 293.897 189.411 297.019 189.523C298.246 189.523 298.859 189.913 298.859 190.693C298.859 191.473 297.744 191.864 295.514 191.864H292.837C291.276 191.752 288.99 191.696 285.979 191.696L269.587 191.864C267.914 191.864 267.078 191.473 267.078 190.693C267.078 189.913 268.695 189.467 271.929 189.355C274.382 189.244 275.72 188.575 275.943 187.349V124.809C275.943 121.687 275.888 120.015 275.776 119.792C275.665 118.9 274.661 118.455 272.765 118.455C268.974 118.343 267.078 117.786 267.078 116.782C267.078 116.113 267.859 115.779 269.42 115.779H270.758C273.1 115.779 275.33 115.835 277.449 115.946C279.679 116.058 281.24 116.113 282.132 116.113C283.359 116.113 285.589 116.058 288.823 115.946C292.168 115.835 294.12 115.779 294.677 115.779H295.848C297.744 115.779 298.692 116.225 298.692 117.117C298.692 118.12 297.186 118.566 294.176 118.455C292.28 118.455 291.053 118.678 290.496 119.123C290.05 119.458 289.827 120.573 289.827 122.468V148.888H321.775V125.812C321.775 122.245 321.664 120.238 321.44 119.792C321.217 118.455 320.102 117.897 318.095 118.12L314.917 118.455C313.467 118.232 312.742 117.786 312.742 117.117C312.742 116.225 313.913 115.779 316.255 115.779H319.601C320.827 115.779 323.002 115.779 326.124 115.779C329.135 115.891 331.309 115.946 332.647 115.946C335.324 115.946 337.164 115.891 338.167 115.779H340.509C343.185 115.779 344.524 116.169 344.524 116.95C344.524 117.841 343.743 118.287 342.182 118.287C340.732 118.287 339.506 118.343 338.502 118.455C337.052 118.455 336.216 118.733 335.993 119.291C335.77 119.848 335.658 121.632 335.658 124.642V182.499C335.658 186.29 335.937 188.408 336.495 188.854C337.052 189.188 339.004 189.355 342.349 189.355C343.91 189.355 344.691 189.801 344.691 190.693Z" fill="white"/>
<path d="M429.571 191.027C429.571 191.696 428.456 192.031 426.226 192.031H425.055L414.684 191.696H410.001C408.105 191.696 405.484 191.752 402.139 191.864L397.121 192.031L394.11 192.198H393.274C391.267 192.198 390.263 191.752 390.263 190.86C390.263 189.968 392.27 189.467 396.285 189.355C401.08 189.244 403.477 188.686 403.477 187.683C403.477 187.46 403.143 186.401 402.474 184.506C402.251 183.614 400.968 179.88 398.626 173.302L396.619 167.617H372.7C368.128 179.099 365.842 185.732 365.842 187.516C365.842 188.519 366.511 189.077 367.849 189.188L370.023 189.355H372.532L374.038 189.523C375.376 189.523 376.045 189.913 376.045 190.693C376.045 191.585 374.874 192.031 372.532 192.031C372.198 192.031 370.191 191.975 366.511 191.864C362.942 191.641 359.764 191.529 356.976 191.529H355.471L353.966 191.696L352.126 191.864H351.791C350.007 191.864 349.115 191.529 349.115 190.86C349.115 190.08 349.84 189.634 351.289 189.523C353.296 189.411 354.635 189.3 355.304 189.188C357.199 188.854 358.426 188.352 358.984 187.683C359.653 187.349 362.385 180.994 367.18 168.62C369.076 163.604 370.915 158.921 372.7 154.574C373.369 153.013 373.815 151.843 374.038 151.062C374.261 150.282 374.707 149.111 375.376 147.551C377.272 142.98 379.948 136.068 383.405 126.815L385.914 119.792L387.085 116.782C387.754 115.11 388.423 114.274 389.092 114.274C389.427 114.274 390.151 115.835 391.267 118.956C394.612 127.094 403.254 148.61 417.193 183.503C418.531 186.958 419.814 188.798 421.04 189.021C421.375 189.132 423.159 189.3 426.393 189.523C428.512 189.634 429.571 190.136 429.571 191.027ZM395.616 164.607L384.743 136.013C382.067 142.701 378.387 152.233 373.703 164.607H395.616Z" fill="white"/>
<path d="M489.7 136.013C489.7 137.462 489.31 138.186 488.53 138.186C487.414 138.186 486.69 137.127 486.355 135.009C485.574 129.101 483.958 124.92 481.504 122.468C479.051 120.015 472.862 118.789 462.937 118.789C460.038 118.789 456.247 118.845 451.563 118.956V150.393H455.41C462.77 150.393 467.286 149.724 468.959 148.387C470.632 147.049 471.747 143.091 472.304 136.514C472.416 135.065 472.974 134.34 473.977 134.34C475.092 134.34 475.65 135.232 475.65 137.016C475.65 137.908 475.594 139.134 475.483 140.695C475.371 142.255 475.315 146.046 475.315 152.065C475.315 153.069 475.371 154.741 475.483 157.082C475.594 159.423 475.65 162.377 475.65 165.945V166.614C475.65 168.732 475.037 169.791 473.81 169.791C472.918 169.791 472.36 168.899 472.137 167.115C471.357 160.315 470.297 156.302 468.959 155.075C467.621 153.849 463.606 153.236 456.916 153.236H451.563V185.509C451.34 187.627 452.121 188.909 453.905 189.355C454.462 189.578 456.191 189.69 459.09 189.69C460.651 189.69 461.432 190.08 461.432 190.86C461.432 191.641 460.707 192.031 459.257 192.031H457.25C456.47 192.031 455.076 192.031 453.069 192.031C451.173 191.919 449.946 191.864 449.389 191.864H436.676C435.561 191.864 434.39 191.919 433.164 192.031C432.048 192.031 431.435 192.031 431.324 192.031C429.428 192.031 428.48 191.641 428.48 190.86C428.48 189.968 429.261 189.523 430.822 189.523C434.279 189.523 436.286 189.3 436.843 188.854C437.401 188.296 437.68 186.568 437.68 183.67V124.642C437.68 121.632 437.401 119.904 436.843 119.458C436.286 118.9 434.334 118.566 430.989 118.455C429.428 118.455 428.647 117.953 428.647 116.95C428.647 116.058 429.818 115.612 432.16 115.612L464.108 115.779C476.04 115.891 483.902 115.556 487.693 114.776L487.86 116.448L488.53 124.14L489.366 132.835C489.589 135.176 489.7 136.235 489.7 136.013Z" fill="white"/>
<path d="M528.066 190.86C528.066 191.529 527.565 191.864 526.561 191.864H524.888L521.376 191.696H517.027C516.135 191.696 515.187 191.641 514.183 191.529C513.291 191.529 512.678 191.529 512.343 191.529C511.228 191.529 509.109 191.585 505.987 191.696C502.976 191.808 500.69 191.864 499.129 191.864H498.46C496.564 191.864 495.616 191.529 495.616 190.86C495.616 189.968 496.843 189.467 499.296 189.355C502.642 189.132 504.37 188.742 504.482 188.185C504.705 187.627 504.816 185.231 504.816 180.994V127.15C504.816 122.802 504.705 120.294 504.482 119.625C504.259 118.845 503.422 118.399 501.972 118.287L498.627 118.12H496.954C495.951 118.12 495.449 117.73 495.449 116.95C495.449 116.169 496.174 115.779 497.623 115.779C497.512 115.779 497.847 115.779 498.627 115.779C499.408 115.891 500.634 115.946 502.307 115.946H514.35C515.019 115.946 516.023 115.891 517.361 115.779C518.699 115.779 519.926 115.779 521.041 115.779H525.223C527.007 115.779 527.899 116.225 527.899 117.117C527.899 117.786 526.003 118.176 522.212 118.287C520.651 118.287 519.703 118.566 519.368 119.123C519.034 119.569 518.867 121.074 518.867 123.638V186.68C518.867 187.795 519.257 188.519 520.038 188.854C520.93 189.188 522.937 189.467 526.059 189.69C527.397 189.801 528.066 190.191 528.066 190.86Z" fill="white"/>
<path d="M599.195 173.804C599.195 173.915 599.139 174.64 599.028 175.978C598.916 177.204 598.86 178.319 598.86 179.322L598.693 188.854C598.693 189.968 598.749 191.195 598.86 192.532L571.094 192.031L539.313 192.198C536.971 192.198 535.8 191.808 535.8 191.027C535.8 190.136 536.469 189.69 537.807 189.69C541.376 189.69 543.439 189.467 543.996 189.021C544.665 188.463 545 186.624 545 183.503V125.979C545 121.409 544.609 119.012 543.829 118.789C543.048 118.455 541.097 118.287 537.975 118.287C536.636 118.287 535.967 117.897 535.967 117.117C535.967 116.225 536.692 115.779 538.142 115.779H542.156C543.271 115.779 544.387 115.779 545.502 115.779C546.728 115.891 547.342 115.946 547.342 115.946H551.523C552.081 115.946 554.869 115.891 559.887 115.779C565.016 115.779 571.149 115.779 578.286 115.779H588.155C591.055 115.779 593.452 115.668 595.348 115.445V116.615L595.515 119.123C595.738 120.796 596.184 125.812 596.853 134.173C596.965 134.73 597.02 135.399 597.02 136.18C597.02 137.629 596.63 138.354 595.85 138.354C594.846 138.354 594.121 137.239 593.675 135.009C592.114 126.537 589.159 121.576 584.81 120.127C582.357 119.346 576.558 118.956 567.414 118.956H558.883V150.226H562.898C570.034 150.226 574.439 149.669 576.112 148.554C577.784 147.328 578.9 144.095 579.457 138.855C579.792 135.734 580.461 134.173 581.464 134.173C582.58 134.173 583.137 135.288 583.137 137.517C583.137 138.855 583.026 140.918 582.803 143.705C582.691 146.492 582.635 148.61 582.635 150.059C582.635 157.305 582.803 162.266 583.137 164.941C583.249 165.833 583.304 166.558 583.304 167.115C583.304 168.899 582.747 169.791 581.632 169.791C580.628 169.791 579.959 168.397 579.625 165.61C578.955 159.59 577.84 156.023 576.279 154.908C574.718 153.682 570.313 153.069 563.065 153.069H558.883V189.188C575.276 189.077 584.921 188.631 587.821 187.85C592.281 186.624 594.902 181.273 595.682 171.797C595.794 170.125 596.407 169.289 597.522 169.289C598.637 169.289 599.195 170.794 599.195 173.804Z" fill="white"/>
<path d="M638 190.86C638 191.529 637.498 191.864 636.495 191.864H634.822L631.309 191.696H626.96C626.068 191.696 625.12 191.641 624.117 191.529C623.225 191.529 622.611 191.529 622.277 191.529C621.162 191.529 619.043 191.585 615.921 191.696C612.91 191.808 610.624 191.864 609.063 191.864H608.393C606.498 191.864 605.55 191.529 605.55 190.86C605.55 189.968 606.777 189.467 609.23 189.355C612.575 189.132 614.304 188.742 614.415 188.185C614.638 187.627 614.75 185.231 614.75 180.994V127.15C614.75 122.802 614.638 120.294 614.415 119.625C614.192 118.845 613.356 118.399 611.906 118.287L608.561 118.12H606.888C605.884 118.12 605.383 117.73 605.383 116.95C605.383 116.169 606.107 115.779 607.557 115.779C607.446 115.779 607.78 115.779 608.561 115.779C609.341 115.891 610.568 115.946 612.241 115.946H624.284C624.953 115.946 625.957 115.891 627.295 115.779C628.633 115.779 629.86 115.779 630.975 115.779H635.157C636.941 115.779 637.833 116.225 637.833 117.117C637.833 117.786 635.937 118.176 632.146 118.287C630.584 118.287 629.637 118.566 629.302 119.123C628.968 119.569 628.8 121.074 628.8 123.638V186.68C628.8 187.795 629.191 188.519 629.971 188.854C630.863 189.188 632.87 189.467 635.993 189.69C637.331 189.801 638 190.191 638 190.86Z" fill="white"/>
<path d="M108.725 1.67219C108.725 2.78698 107.331 3.28864 104.543 3.17715L100.863 3.00994H97.8524C96.0682 3.00994 95.0088 3.34438 94.6742 4.01326C94.3397 4.57065 94.1724 6.41006 94.1724 9.53147V105.849C94.1724 111.758 94.1167 115.214 94.0052 116.217C93.8937 117.22 93.5591 117.722 93.0016 117.722C92.3325 117.722 91.5519 117.109 90.6598 115.883L69.2494 84.6127C56.8715 66.4416 41.8173 43.7556 24.0867 16.5547L24.254 109.863C24.3655 111.312 25.2019 112.26 26.763 112.705C28.3242 113.04 32.0599 113.263 37.9701 113.374C39.4197 113.374 40.1446 113.82 40.1446 114.712C40.1446 115.827 38.6949 116.384 35.7956 116.384C34.792 116.384 31.6138 116.217 26.2612 115.883C24.477 115.771 22.7486 115.715 21.0759 115.715C21.1874 115.715 20.1838 115.827 18.0651 116.05C16.0578 116.273 12.9355 116.384 8.69799 116.384H7.0253C4.46051 116.384 3.17811 115.883 3.17811 114.879C3.17811 113.876 4.29324 113.374 6.52349 113.374C13.1027 113.263 16.8942 112.873 17.8978 112.204C19.0129 111.423 19.5705 109.027 19.5705 105.013V22.5745C19.5705 13.3218 17.6748 7.52485 13.8833 5.18378C12.0991 4.06899 8.92101 3.5116 4.34899 3.5116C1.44966 3.5116 0 2.9542 0 1.83941C0 0.836099 0.836345 0.334443 2.50903 0.334443C4.73929 0.334443 7.58286 0.390182 11.0398 0.50166C14.4966 0.613137 16.3366 0.668876 16.5596 0.668876C16.8942 0.668876 18.4553 0.613137 21.2432 0.50166C24.9231 0.50166 28.4915 0.445921 31.9484 0.334443L89.6562 86.1176V11.7053C89.6562 8.24946 89.6004 6.1871 89.4889 5.51822C89.3774 4.73787 88.9314 4.18047 88.1508 3.84603C87.3702 3.40011 84.6939 3.17715 80.1219 3.17715C76.1074 3.17715 74.1002 2.6755 74.1002 1.67219C74.1002 0.557395 75.4383 0 78.1146 0H83.969C85.4187 0 86.9799 0 88.6526 0C90.4368 0.111484 91.4961 0.167227 91.8307 0.167227C91.9422 0.167227 92.9458 0.111484 94.8415 0C96.6257 0 98.2984 0 99.8596 0H105.045C107.498 0 108.725 0.557395 108.725 1.67219Z" fill="white"/>
<path d="M189.39 115.381C189.39 116.05 188.275 116.384 186.045 116.384H184.874L174.503 116.05H169.82C167.924 116.05 165.304 116.106 161.958 116.217L156.94 116.384L153.929 116.551H153.093C151.086 116.551 150.082 116.106 150.082 115.214C150.082 114.322 152.089 113.82 156.104 113.709C160.899 113.597 163.296 113.04 163.296 112.037C163.296 111.814 162.962 110.755 162.293 108.859C162.07 107.968 160.787 104.233 158.446 97.6557L156.438 91.9703H132.519C127.947 103.453 125.661 110.086 125.661 111.869C125.661 112.873 126.33 113.43 127.668 113.542L129.843 113.709H132.352L133.857 113.876C135.195 113.876 135.864 114.266 135.864 115.046C135.864 115.938 134.693 116.384 132.352 116.384C132.017 116.384 130.01 116.328 126.33 116.217C122.762 115.994 119.583 115.883 116.796 115.883H115.29L113.785 116.05L111.945 116.217H111.61C109.826 116.217 108.934 115.883 108.934 115.214C108.934 114.433 109.659 113.987 111.108 113.876C113.116 113.764 114.454 113.653 115.123 113.542C117.019 113.207 118.245 112.705 118.803 112.037C119.472 111.702 122.204 105.348 126.999 92.9736C128.895 87.957 130.735 83.2749 132.519 78.9272C133.188 77.3665 133.634 76.196 133.857 75.4156C134.08 74.6353 134.526 73.4648 135.195 71.904C137.091 67.3334 139.767 60.4217 143.224 51.1689L145.733 44.1457L146.904 41.1358C147.573 39.4636 148.242 38.6275 148.911 38.6275C149.246 38.6275 149.971 40.1882 151.086 43.3097C154.431 51.4476 163.073 72.9631 177.012 107.856C178.351 111.312 179.633 113.151 180.86 113.374C181.194 113.486 182.978 113.653 186.212 113.876C188.331 113.987 189.39 114.489 189.39 115.381ZM155.435 88.9604L144.562 60.366C141.886 67.0547 138.206 76.5862 133.522 88.9604H155.435Z" fill="white"/>
<path d="M264.908 93.1408C264.908 93.6982 263.905 94.0327 261.898 94.1441L256.545 94.3114C255.987 94.4228 255.541 94.9245 255.207 95.8163C254.984 96.7082 254.872 98.7148 254.872 101.836V108.525C247.512 114.545 239.037 117.555 229.447 117.555C217.181 117.555 207.424 114.099 200.175 107.187C192.927 100.164 189.303 90.8555 189.303 79.2617C189.303 67.2219 192.815 57.5232 199.841 50.1656C206.978 42.6965 216.345 38.962 227.942 38.962C233.964 38.962 240.431 40.8571 247.345 44.6474C247.903 44.9818 248.404 45.1491 248.851 45.1491C249.743 45.1491 250.356 44.4244 250.691 42.9752C251.36 40.9686 252.14 39.9653 253.032 39.9653C253.924 39.9653 254.37 40.4112 254.37 41.303C254.37 41.0801 254.259 42.0276 254.036 44.1457C253.701 47.3786 253.534 53.7887 253.534 63.3759C253.534 65.9399 252.865 67.2219 251.527 67.2219C250.523 67.2219 250.021 66.553 250.021 65.2153C249.798 57.9692 247.735 52.228 243.832 47.9918C240.041 43.6441 235.079 41.4702 228.946 41.4702C221.474 41.4702 215.62 44.8146 211.382 51.5034C207.145 58.1921 205.026 67.3334 205.026 78.9272C205.026 90.0751 207.145 98.882 211.382 105.348C215.731 111.814 221.586 115.046 228.946 115.046C235.636 115.046 239.762 112.928 241.323 108.692C241.881 107.243 242.16 104.902 242.16 101.669C242.16 97.6557 241.881 95.4262 241.323 94.9802C240.877 94.4228 238.814 94.1441 235.134 94.1441H233.964C233.406 94.2556 232.904 94.3114 232.458 94.3114C231.566 94.3114 231.12 93.9212 231.12 93.1408C231.12 92.1375 232.458 91.6359 235.134 91.6359H239.483C240.487 91.6359 241.714 91.6359 243.163 91.6359C244.725 91.7473 245.561 91.8031 245.672 91.8031C253.478 91.8031 257.939 91.7473 259.054 91.6359H262.065C263.96 91.6359 264.908 92.1375 264.908 93.1408Z" fill="white"/>
<path d="M344.327 115.046C344.327 115.827 342.654 116.217 339.309 116.217C339.198 116.217 338.64 116.161 337.636 116.05C336.633 116.05 335.685 116.05 334.793 116.05H322.415C320.519 116.05 319.293 116.106 318.735 116.217L316.059 116.384C313.605 116.496 312.379 116.106 312.379 115.214C312.379 114.545 313.327 114.155 315.222 114.043C318.902 113.932 320.854 113.43 321.077 112.538C321.3 111.981 321.411 110.141 321.411 107.02V76.419H289.463V110.866C289.686 112.092 290.132 112.873 290.801 113.207C291.582 113.542 293.533 113.764 296.655 113.876C297.882 113.876 298.495 114.266 298.495 115.046C298.495 115.827 297.38 116.217 295.15 116.217H292.474C290.913 116.106 288.627 116.05 285.616 116.05L269.223 116.217C267.551 116.217 266.714 115.827 266.714 115.046C266.714 114.266 268.331 113.82 271.565 113.709C274.018 113.597 275.357 112.928 275.58 111.702V49.1623C275.58 46.0409 275.524 44.3687 275.412 44.1457C275.301 43.2539 274.297 42.808 272.401 42.808C268.61 42.6965 266.714 42.1391 266.714 41.1358C266.714 40.4669 267.495 40.1325 269.056 40.1325H270.394C272.736 40.1325 274.966 40.1882 277.085 40.2997C279.315 40.4112 280.876 40.4669 281.769 40.4669C282.995 40.4669 285.225 40.4112 288.459 40.2997C291.805 40.1882 293.756 40.1325 294.314 40.1325H295.485C297.38 40.1325 298.328 40.5784 298.328 41.4702C298.328 42.4736 296.823 42.9195 293.812 42.808C291.916 42.808 290.69 43.031 290.132 43.4769C289.686 43.8113 289.463 44.9261 289.463 46.8212V73.2418H321.411V50.1656C321.411 46.5983 321.3 44.5917 321.077 44.1457C320.854 42.808 319.739 42.2506 317.731 42.4736L314.553 42.808C313.104 42.585 312.379 42.1391 312.379 41.4702C312.379 40.5784 313.55 40.1325 315.891 40.1325H319.237C320.463 40.1325 322.638 40.1325 325.76 40.1325C328.771 40.244 330.946 40.2997 332.284 40.2997C334.96 40.2997 336.8 40.244 337.804 40.1325H340.145C342.822 40.1325 344.16 40.5227 344.16 41.303C344.16 42.1949 343.379 42.6408 341.818 42.6408C340.368 42.6408 339.142 42.6965 338.138 42.808C336.689 42.808 335.852 43.0867 335.629 43.6441C335.406 44.2015 335.295 45.9852 335.295 48.9951V106.853C335.295 110.643 335.573 112.761 336.131 113.207C336.689 113.542 338.64 113.709 341.985 113.709C343.547 113.709 344.327 114.155 344.327 115.046Z" fill="white"/>
<path d="M438.62 115.046C438.62 115.938 437.616 116.384 435.609 116.384C436.055 116.384 435.498 116.384 433.936 116.384C432.375 116.273 429.866 116.217 426.409 116.217H420.555C418.882 116.217 416.708 116.273 414.031 116.384C411.355 116.384 408.902 116.384 406.671 116.384H405.835C403.828 116.384 402.824 115.938 402.824 115.046C402.824 114.489 403.047 114.155 403.493 114.043C404.051 113.932 405.947 113.82 409.181 113.709C411.522 113.597 412.86 113.263 413.195 112.705C413.641 112.148 413.864 110.086 413.864 106.518V52.8411C411.857 58.4151 408.623 67.6121 404.162 80.4322C401.598 88.1243 398.364 98.0459 394.461 110.197C393.346 113.653 392.454 115.381 391.784 115.381C390.892 115.381 389.945 113.876 388.941 110.866C386.376 103.174 378.849 84.111 366.36 53.6772V110.866C366.36 112.315 366.917 113.207 368.032 113.542C369.593 113.653 371.601 113.709 374.054 113.709C375.504 113.709 376.228 114.099 376.228 114.879C376.228 115.771 375.113 116.217 372.883 116.217H370.541C369.538 116.106 368.367 116.05 367.029 116.05L357.494 116.217C356.491 116.328 355.264 116.384 353.814 116.384C352.142 116.384 351.305 115.938 351.305 115.046C351.305 114.266 353.09 113.82 356.658 113.709C359.111 113.597 360.505 113.319 360.84 112.873C361.286 112.315 361.509 110.476 361.509 107.354V50.6673C361.509 46.877 361.118 44.6474 360.338 43.9785C359.669 43.3096 357.271 42.9195 353.145 42.808C351.696 42.808 350.971 42.3621 350.971 41.4702C350.971 40.8014 351.919 40.4112 353.814 40.2997C355.71 40.1882 362.401 40.1325 373.887 40.1325L374.556 41.9719C375.113 43.1982 375.838 44.9261 376.73 47.1557L380.745 57.1888C381.86 59.9758 383.756 64.6579 386.432 71.2352L395.297 93.1408C396.97 87.7898 398.252 83.8323 399.144 81.2683L413.529 40.1325H426.242L433.602 39.9653C436.501 39.8538 437.951 40.3554 437.951 41.4702C437.951 42.3621 436.891 42.8637 434.773 42.9752C431.873 43.0867 430.145 43.1982 429.587 43.3097C428.026 43.867 427.246 45.0933 427.246 46.9885V106.017C427.246 110.476 427.636 112.873 428.416 113.207C429.197 113.542 431.762 113.709 436.111 113.709C437.783 113.709 438.62 114.155 438.62 115.046Z" fill="white"/>
<path d="M507.498 98.1574C507.498 98.2689 507.442 98.9935 507.331 100.331C507.219 101.557 507.164 102.672 507.164 103.676L506.996 113.207C506.996 114.322 507.052 115.548 507.164 116.886L479.397 116.384L447.616 116.551C445.274 116.551 444.103 116.161 444.103 115.381C444.103 114.489 444.772 114.043 446.11 114.043C449.679 114.043 451.742 113.82 452.299 113.374C452.968 112.817 453.303 110.977 453.303 107.856V50.3328C453.303 45.7622 452.913 43.3654 452.132 43.1424C451.351 42.808 449.4 42.6408 446.278 42.6408C444.939 42.6408 444.27 42.2506 444.27 41.4702C444.27 40.5784 444.995 40.1325 446.445 40.1325H450.459C451.574 40.1325 452.69 40.1325 453.805 40.1325C455.031 40.244 455.645 40.2997 455.645 40.2997H459.826C460.384 40.2997 463.172 40.244 468.19 40.1325C473.319 40.1325 479.453 40.1325 486.589 40.1325H496.458C499.358 40.1325 501.755 40.021 503.651 39.7981V40.9686L503.818 43.4769C504.041 45.1491 504.487 50.1656 505.156 58.5265C505.268 59.0839 505.324 59.7528 505.324 60.5332C505.324 61.9824 504.933 62.707 504.153 62.707C503.149 62.707 502.424 61.5922 501.978 59.3626C500.417 50.8902 497.462 45.9294 493.113 44.4802C490.66 43.6998 484.861 43.3097 475.717 43.3097H467.186V74.5796H471.201C478.338 74.5796 482.742 74.0222 484.415 72.9074C486.088 71.6811 487.203 68.4482 487.76 63.2087C488.095 60.0873 488.764 58.5265 489.768 58.5265C490.883 58.5265 491.44 59.6413 491.44 61.8709C491.44 63.2087 491.329 65.271 491.106 68.058C490.994 70.845 490.938 72.9631 490.938 74.4123C490.938 81.6585 491.106 86.6193 491.44 89.2948C491.552 90.1866 491.608 90.9112 491.608 91.4686C491.608 93.2523 491.05 94.1441 489.935 94.1441C488.931 94.1441 488.262 92.7506 487.928 89.9637C487.258 83.9438 486.143 80.3765 484.582 79.2617C483.021 78.0354 478.616 77.4223 471.368 77.4223H467.186V113.542C483.579 113.43 493.224 112.984 496.124 112.204C500.584 110.977 503.205 105.626 503.985 96.1508C504.097 94.4786 504.71 93.6425 505.825 93.6425C506.94 93.6425 507.498 95.1474 507.498 98.1574Z" fill="white"/>
<path d="M591.8 115.046C591.8 115.827 590.128 116.217 586.782 116.217C586.671 116.217 586.113 116.161 585.11 116.05C584.106 116.05 583.158 116.05 582.266 116.05H569.888C567.992 116.05 566.766 116.106 566.208 116.217L563.532 116.384C561.079 116.496 559.852 116.106 559.852 115.214C559.852 114.545 560.8 114.155 562.695 114.043C566.375 113.932 568.327 113.43 568.55 112.538C568.773 111.981 568.884 110.141 568.884 107.02V76.419H536.936V110.866C537.159 112.092 537.605 112.873 538.274 113.207C539.055 113.542 541.006 113.764 544.129 113.876C545.355 113.876 545.969 114.266 545.969 115.046C545.969 115.827 544.854 116.217 542.623 116.217H539.947C538.386 116.106 536.1 116.05 533.089 116.05L516.697 116.217C515.024 116.217 514.188 115.827 514.188 115.046C514.188 114.266 515.805 113.82 519.038 113.709C521.492 113.597 522.83 112.928 523.053 111.702V49.1623C523.053 46.0409 522.997 44.3687 522.886 44.1457C522.774 43.2539 521.77 42.808 519.875 42.808C516.083 42.6965 514.188 42.1391 514.188 41.1358C514.188 40.4669 514.968 40.1325 516.529 40.1325H517.867C520.209 40.1325 522.439 40.1882 524.558 40.2997C526.788 40.4112 528.35 40.4669 529.242 40.4669C530.468 40.4669 532.699 40.4112 535.932 40.2997C539.278 40.1882 541.229 40.1325 541.787 40.1325H542.958C544.854 40.1325 545.801 40.5784 545.801 41.4702C545.801 42.4736 544.296 42.9195 541.285 42.808C539.389 42.808 538.163 43.031 537.605 43.4769C537.159 43.8113 536.936 44.9261 536.936 46.8212V73.2418H568.884V50.1656C568.884 46.5983 568.773 44.5917 568.55 44.1457C568.327 42.808 567.212 42.2506 565.205 42.4736L562.026 42.808C560.577 42.585 559.852 42.1391 559.852 41.4702C559.852 40.5784 561.023 40.1325 563.365 40.1325H566.71C567.937 40.1325 570.111 40.1325 573.233 40.1325C576.244 40.244 578.419 40.2997 579.757 40.2997C582.433 40.2997 584.273 40.244 585.277 40.1325H587.619C590.295 40.1325 591.633 40.5227 591.633 41.303C591.633 42.1949 590.852 42.6408 589.291 42.6408C587.842 42.6408 586.615 42.6965 585.611 42.808C584.162 42.808 583.325 43.0867 583.102 43.6441C582.879 44.2015 582.768 45.9852 582.768 48.9951V106.853C582.768 110.643 583.047 112.761 583.604 113.207C584.162 113.542 586.113 113.709 589.458 113.709C591.02 113.709 591.8 114.155 591.8 115.046Z" fill="white"/>
</svg>
