<?xml version="1.0" encoding="utf-8"?>
<!-- Generator: Adobe Illustrator 25.0.1, SVG Export Plug-In . SVG Version: 6.00 Build 0)  -->
<svg version="1.1" id="Layer_1" xmlns="http://www.w3.org/2000/svg" xmlns:xlink="http://www.w3.org/1999/xlink" x="0px" y="0px"
	 viewBox="0 0 416 155" style="enable-background:new 0 0 416 155;" xml:space="preserve">
<style type="text/css">
	.st0{fill:#8497D3;stroke:#FFFFFF;stroke-miterlimit:10;}
</style>
<path class="st0" d="M176.49,114.62c0,4.22-1.62,7.82-4.86,10.81c-3.19,2.94-7.04,4.41-11.56,4.41c-2.65,0-5.82-0.81-9.5-2.43
	c-0.98-0.44-1.72-0.66-2.21-0.66c-0.59,0-0.96,0.71-1.1,2.13c-0.05,0.74-0.37,1.1-0.96,1.1c-0.49,0-0.74-0.29-0.74-0.88
	c0-0.39,0.02-0.69,0.07-0.88c0.39-2.99,0.59-5.76,0.59-8.31c0-0.49-0.05-1.86-0.15-4.12c-0.05-0.29-0.07-0.69-0.07-1.18
	c0-0.74,0.3-1.1,0.88-1.1c0.49,0,0.83,0.59,1.03,1.76c1.28,8.73,5.42,13.09,12.44,13.09c2.99,0,5.3-0.83,6.92-2.5
	c1.67-1.72,2.5-4.12,2.5-7.2c0-2.75-0.81-5.07-2.43-6.98c-1.57-1.96-4.3-3.9-8.17-5.81c-4.66-2.3-7.9-4.53-9.72-6.69
	c-1.82-2.16-2.72-4.83-2.72-8.01c0-4.07,1.3-7.43,3.9-10.07c2.65-2.65,5.99-3.97,10.01-3.97c1.67,0,3.98,0.56,6.92,1.69
	c1.03,0.39,1.79,0.59,2.28,0.59c0.54,0,0.88-0.1,1.03-0.29c0.2-0.2,0.37-0.71,0.52-1.54c0.1-0.49,0.37-0.74,0.81-0.74
	c0.49,0,0.74,0.29,0.74,0.88c0,0.39-0.02,0.69-0.07,0.88c-0.15,1.18-0.22,2.6-0.22,4.26c0,2.35,0.12,4.22,0.37,5.59l0.07,1.18
	c0.05,0.54-0.17,0.81-0.66,0.81c-0.54,0-0.91-0.56-1.1-1.69c-0.54-2.89-1.82-5.29-3.83-7.21c-2.01-1.96-4.27-2.94-6.77-2.94
	c-2.45,0-4.42,0.78-5.89,2.35c-1.42,1.57-2.14,3.7-2.14,6.4c0,3.14,1.06,5.66,3.17,7.57c1.18,1.08,3.73,2.6,7.66,4.56
	c4.61,2.3,7.93,4.66,9.94,7.06C175.48,108.88,176.49,111.58,176.49,114.62z"/>
<path class="st0" d="M219.59,115.43c0,0.41-0.88,0.61-2.64,0.61c-0.06,0-0.35-0.03-0.88-0.09c-0.53,0-1.03,0-1.49,0h-6.5
	c-1,0-1.64,0.03-1.93,0.09l-1.41,0.09c-1.29,0.06-1.93-0.15-1.93-0.61c0-0.35,0.5-0.56,1.49-0.61c1.93-0.06,2.96-0.32,3.07-0.79
	c0.12-0.29,0.18-1.26,0.18-2.89V95.17h-16.78v18.07c0.12,0.64,0.35,1.05,0.7,1.23c0.41,0.18,1.44,0.29,3.08,0.35
	c0.64,0,0.97,0.2,0.97,0.61c0,0.41-0.59,0.61-1.76,0.61h-1.41c-0.82-0.06-2.02-0.09-3.6-0.09l-8.61,0.09c-0.88,0-1.32-0.2-1.32-0.61
	c0-0.41,0.85-0.64,2.55-0.7c1.29-0.06,1.99-0.41,2.11-1.05V80.87c0-1.64-0.03-2.51-0.09-2.63c-0.06-0.47-0.59-0.7-1.58-0.7
	c-1.99-0.06-2.99-0.35-2.99-0.88c0-0.35,0.41-0.53,1.23-0.53h0.7c1.23,0,2.4,0.03,3.51,0.09c1.17,0.06,1.99,0.09,2.46,0.09
	c0.64,0,1.82-0.03,3.51-0.09c1.76-0.06,2.78-0.09,3.08-0.09h0.61c1,0,1.49,0.23,1.49,0.7c0,0.53-0.79,0.76-2.37,0.7
	c-1,0-1.64,0.12-1.93,0.35c-0.23,0.18-0.35,0.76-0.35,1.75V93.5h16.78V81.4c0-1.87-0.06-2.92-0.18-3.16
	c-0.12-0.7-0.7-0.99-1.76-0.88l-1.67,0.18c-0.76-0.12-1.14-0.35-1.14-0.7c0-0.47,0.61-0.7,1.84-0.7h1.76c0.64,0,1.79,0,3.43,0
	c1.58,0.06,2.72,0.09,3.43,0.09c1.41,0,2.37-0.03,2.9-0.09h1.23c1.41,0,2.11,0.2,2.11,0.61c0,0.47-0.41,0.7-1.23,0.7
	c-0.76,0-1.41,0.03-1.93,0.09c-0.76,0-1.2,0.15-1.32,0.44c-0.12,0.29-0.18,1.23-0.18,2.81v30.35c0,1.99,0.15,3.1,0.44,3.33
	c0.29,0.18,1.32,0.26,3.07,0.26C219.18,114.73,219.59,114.97,219.59,115.43z"/>
<path class="st0" d="M263.67,115.61c0,0.35-0.59,0.53-1.76,0.53h-0.61l-5.45-0.18h-2.46c-1,0-2.37,0.03-4.13,0.09l-2.64,0.09
	l-1.58,0.09h-0.44c-1.05,0-1.58-0.23-1.58-0.7c0-0.47,1.05-0.73,3.16-0.79c2.52-0.06,3.78-0.35,3.78-0.88
	c0-0.12-0.18-0.67-0.53-1.67c-0.12-0.47-0.79-2.43-2.02-5.88l-1.05-2.98H233.8c-2.4,6.02-3.6,9.5-3.6,10.44
	c0,0.53,0.35,0.82,1.05,0.88l1.14,0.09h1.32l0.79,0.09c0.7,0,1.05,0.2,1.05,0.61c0,0.47-0.62,0.7-1.85,0.7
	c-0.18,0-1.23-0.03-3.16-0.09c-1.87-0.12-3.54-0.18-5.01-0.18h-0.79l-0.79,0.09l-0.97,0.09h-0.18c-0.94,0-1.41-0.18-1.41-0.53
	c0-0.41,0.38-0.64,1.14-0.7c1.05-0.06,1.76-0.12,2.11-0.18c1-0.18,1.64-0.44,1.93-0.79c0.35-0.18,1.79-3.51,4.3-10
	c1-2.63,1.96-5.09,2.9-7.37c0.35-0.82,0.59-1.43,0.7-1.84c0.12-0.41,0.35-1.02,0.7-1.84c1-2.4,2.4-6.02,4.22-10.88l1.32-3.68
	l0.62-1.58c0.35-0.88,0.7-1.32,1.05-1.32c0.18,0,0.56,0.82,1.14,2.46c1.76,4.27,6.3,15.56,13.62,33.86c0.7,1.81,1.38,2.78,2.02,2.9
	c0.18,0.06,1.11,0.15,2.81,0.26C263.11,114.88,263.67,115.14,263.67,115.61z M245.83,101.75l-5.71-15c-1.41,3.51-3.34,8.51-5.8,15
	H245.83z"/>
<path class="st0" d="M295.25,86.75c0,0.76-0.2,1.14-0.61,1.14c-0.59,0-0.97-0.56-1.14-1.67c-0.41-3.1-1.26-5.29-2.55-6.58
	c-1.29-1.29-4.54-1.93-9.75-1.93c-1.52,0-3.51,0.03-5.97,0.09v16.49h2.02c3.87,0,6.24-0.35,7.12-1.05c0.88-0.7,1.46-2.78,1.76-6.23
	c0.06-0.76,0.35-1.14,0.88-1.14c0.59,0,0.88,0.47,0.88,1.4c0,0.47-0.03,1.11-0.09,1.93c-0.06,0.82-0.09,2.81-0.09,5.97
	c0,0.53,0.03,1.4,0.09,2.63c0.06,1.23,0.09,2.78,0.09,4.65v0.35c0,1.11-0.32,1.67-0.97,1.67c-0.47,0-0.76-0.47-0.88-1.4
	c-0.41-3.57-0.97-5.67-1.67-6.32c-0.7-0.64-2.81-0.97-6.33-0.97h-2.81v16.93c-0.12,1.11,0.29,1.78,1.23,2.02
	c0.29,0.12,1.2,0.17,2.72,0.17c0.82,0,1.23,0.21,1.23,0.61c0,0.41-0.38,0.61-1.14,0.61h-1.05c-0.41,0-1.14,0-2.2,0
	c-1-0.06-1.64-0.09-1.93-0.09h-6.68c-0.59,0-1.2,0.03-1.84,0.09c-0.59,0-0.91,0-0.97,0c-1,0-1.49-0.2-1.49-0.61
	c0-0.47,0.41-0.7,1.23-0.7c1.82,0,2.87-0.12,3.16-0.35c0.29-0.29,0.44-1.2,0.44-2.72V80.78c0-1.58-0.15-2.49-0.44-2.72
	c-0.29-0.29-1.32-0.47-3.07-0.53c-0.82,0-1.23-0.26-1.23-0.79c0-0.47,0.62-0.7,1.84-0.7l16.78,0.09c6.27,0.06,10.4-0.12,12.39-0.53
	l0.09,0.88l0.35,4.04l0.44,4.56C295.19,86.31,295.25,86.86,295.25,86.75z"/>
<path class="st0" d="M316.4,115.52c0,0.35-0.26,0.53-0.79,0.53h-0.88l-1.84-0.09h-2.28c-0.47,0-0.97-0.03-1.49-0.09
	c-0.47,0-0.79,0-0.97,0c-0.59,0-1.7,0.03-3.34,0.09c-1.58,0.06-2.78,0.09-3.6,0.09h-0.35c-1,0-1.49-0.18-1.49-0.53
	c0-0.47,0.64-0.73,1.93-0.79c1.76-0.12,2.66-0.32,2.72-0.61c0.12-0.29,0.18-1.55,0.18-3.77V82.1c0-2.28-0.06-3.6-0.18-3.95
	c-0.12-0.41-0.56-0.64-1.32-0.7l-1.76-0.09h-0.88c-0.53,0-0.79-0.2-0.79-0.61c0-0.41,0.38-0.61,1.14-0.61c-0.06,0,0.12,0,0.53,0
	c0.41,0.06,1.05,0.09,1.93,0.09h6.33c0.35,0,0.88-0.03,1.58-0.09c0.7,0,1.35,0,1.93,0h2.2c0.94,0,1.41,0.23,1.41,0.7
	c0,0.35-1,0.56-2.99,0.61c-0.82,0-1.32,0.15-1.49,0.44c-0.18,0.23-0.26,1.02-0.26,2.37v33.07c0,0.58,0.2,0.97,0.61,1.14
	c0.47,0.18,1.52,0.32,3.16,0.44C316.05,114.97,316.4,115.17,316.4,115.52z"/>
<path class="st0" d="M357.76,106.57c0,0.06-0.03,0.44-0.09,1.14c-0.06,0.64-0.09,1.23-0.09,1.75l-0.09,5c0,0.58,0.03,1.23,0.09,1.93
	L343,116.14l-16.69,0.09c-1.23,0-1.84-0.2-1.84-0.61c0-0.47,0.35-0.7,1.05-0.7c1.87,0,2.96-0.12,3.25-0.35
	c0.35-0.29,0.53-1.26,0.53-2.9V81.48c0-2.4-0.2-3.66-0.61-3.77c-0.41-0.18-1.44-0.26-3.07-0.26c-0.7,0-1.05-0.2-1.05-0.61
	c0-0.47,0.38-0.7,1.14-0.7h2.11c0.59,0,1.17,0,1.76,0c0.64,0.06,0.97,0.09,0.97,0.09h2.2c0.29,0,1.76-0.03,4.39-0.09
	c2.69,0,5.92,0,9.66,0h5.18c1.52,0,2.78-0.06,3.78-0.18v0.61l0.09,1.32c0.12,0.88,0.35,3.51,0.7,7.9c0.06,0.29,0.09,0.64,0.09,1.05
	c0,0.76-0.21,1.14-0.62,1.14c-0.53,0-0.91-0.58-1.14-1.75c-0.82-4.44-2.37-7.05-4.66-7.81c-1.29-0.41-4.33-0.61-9.14-0.61h-4.48
	v16.4h2.11c3.75,0,6.06-0.29,6.94-0.88c0.88-0.64,1.46-2.34,1.76-5.09c0.18-1.64,0.53-2.46,1.05-2.46c0.59,0,0.88,0.58,0.88,1.75
	c0,0.7-0.06,1.78-0.18,3.25c-0.06,1.46-0.09,2.57-0.09,3.33c0,3.8,0.09,6.4,0.26,7.81c0.06,0.47,0.09,0.85,0.09,1.14
	c0,0.94-0.29,1.4-0.88,1.4c-0.53,0-0.88-0.73-1.05-2.19c-0.35-3.16-0.94-5.03-1.76-5.61c-0.82-0.64-3.13-0.97-6.94-0.97h-2.2v18.95
	c8.61-0.06,13.68-0.29,15.2-0.7c2.34-0.64,3.72-3.45,4.13-8.42c0.06-0.88,0.38-1.32,0.97-1.32
	C357.47,104.2,357.76,104.99,357.76,106.57z"/>
<path class="st0" d="M384.14,115.52c0,0.35-0.26,0.53-0.79,0.53h-0.88l-1.85-0.09h-2.28c-0.47,0-0.97-0.03-1.49-0.09
	c-0.47,0-0.79,0-0.97,0c-0.59,0-1.7,0.03-3.34,0.09c-1.58,0.06-2.78,0.09-3.6,0.09h-0.35c-1,0-1.49-0.18-1.49-0.53
	c0-0.47,0.64-0.73,1.93-0.79c1.76-0.12,2.66-0.32,2.72-0.61c0.12-0.29,0.18-1.55,0.18-3.77V82.1c0-2.28-0.06-3.6-0.18-3.95
	c-0.12-0.41-0.56-0.64-1.32-0.7l-1.76-0.09h-0.88c-0.53,0-0.79-0.2-0.79-0.61c0-0.41,0.38-0.61,1.14-0.61c-0.06,0,0.12,0,0.53,0
	c0.41,0.06,1.05,0.09,1.93,0.09h6.33c0.35,0,0.88-0.03,1.58-0.09c0.7,0,1.35,0,1.93,0h2.2c0.94,0,1.41,0.23,1.41,0.7
	c0,0.35-1,0.56-2.99,0.61c-0.82,0-1.32,0.15-1.49,0.44c-0.18,0.23-0.26,1.02-0.26,2.37v33.07c0,0.58,0.21,0.97,0.62,1.14
	c0.47,0.18,1.52,0.32,3.16,0.44C383.79,114.97,384.14,115.17,384.14,115.52z"/>
<path class="st0" d="M70.89,1.09c0,0.73-0.91,1.05-2.73,0.98l-2.4-0.11H63.8c-1.16,0-1.85,0.22-2.07,0.65
	c-0.22,0.36-0.33,1.56-0.33,3.59v62.73c0,3.85-0.04,6.1-0.11,6.75c-0.07,0.65-0.29,0.98-0.65,0.98c-0.44,0-0.95-0.4-1.53-1.2
	L45.15,55.1C37.08,43.27,27.27,28.5,15.71,10.78l0.11,60.77c0.07,0.94,0.62,1.56,1.64,1.85c1.02,0.22,3.45,0.36,7.31,0.44
	c0.95,0,1.42,0.29,1.42,0.87c0,0.73-0.95,1.09-2.84,1.09c-0.65,0-2.73-0.11-6.22-0.33c-1.16-0.07-2.29-0.11-3.38-0.11
	c0.07,0-0.58,0.07-1.96,0.22c-1.31,0.15-3.34,0.22-6.11,0.22H4.58c-1.67,0-2.51-0.33-2.51-0.98c0-0.65,0.73-0.98,2.18-0.98
	c4.29-0.07,6.76-0.33,7.42-0.76c0.73-0.51,1.09-2.07,1.09-4.68V14.7c0-6.03-1.24-9.8-3.71-11.33C7.89,2.65,5.82,2.29,2.84,2.29
	C0.95,2.29,0,1.92,0,1.2c0-0.65,0.55-0.98,1.64-0.98c1.45,0,3.31,0.04,5.56,0.11c2.25,0.07,3.45,0.11,3.6,0.11
	c0.22,0,1.24-0.04,3.05-0.11c2.4,0,4.73-0.04,6.98-0.11l37.63,55.87V7.62c0-2.25-0.04-3.59-0.11-4.03
	c-0.07-0.51-0.36-0.87-0.87-1.09c-0.51-0.29-2.25-0.44-5.24-0.44c-2.62,0-3.93-0.33-3.93-0.98c0-0.73,0.87-1.09,2.62-1.09h3.82
	c0.95,0,1.96,0,3.05,0c1.16,0.07,1.85,0.11,2.07,0.11c0.07,0,0.73-0.04,1.96-0.11c1.16,0,2.25,0,3.27,0h3.38
	C70.09,0,70.89,0.36,70.89,1.09z"/>
<path class="st0" d="M123.49,75.14c0,0.44-0.73,0.65-2.18,0.65h-0.76l-6.76-0.22h-3.05c-1.24,0-2.94,0.04-5.13,0.11l-3.27,0.11
	l-1.96,0.11h-0.55c-1.31,0-1.96-0.29-1.96-0.87c0-0.58,1.31-0.91,3.93-0.98c3.13-0.07,4.69-0.44,4.69-1.09
	c0-0.15-0.22-0.83-0.65-2.07c-0.14-0.58-0.98-3.01-2.51-7.3L102,59.9h-15.6c-2.98,7.48-4.47,11.8-4.47,12.96
	c0,0.65,0.44,1.02,1.31,1.09l1.42,0.11h1.64l0.98,0.11c0.87,0,1.31,0.25,1.31,0.76c0,0.58-0.76,0.87-2.29,0.87
	c-0.22,0-1.53-0.04-3.93-0.11c-2.33-0.15-4.4-0.22-6.22-0.22h-0.98l-0.98,0.11l-1.2,0.11h-0.22c-1.16,0-1.75-0.22-1.75-0.65
	c0-0.51,0.47-0.8,1.42-0.87c1.31-0.07,2.18-0.15,2.62-0.22c1.24-0.22,2.04-0.54,2.4-0.98c0.44-0.22,2.22-4.36,5.34-12.41
	c1.24-3.27,2.44-6.32,3.6-9.15c0.44-1.02,0.73-1.78,0.87-2.29s0.44-1.27,0.87-2.29c1.24-2.98,2.98-7.48,5.24-13.5l1.64-4.57
	l0.76-1.96c0.44-1.09,0.87-1.63,1.31-1.63c0.22,0,0.69,1.02,1.42,3.05c2.18,5.3,7.82,19.31,16.91,42.04
	c0.87,2.25,1.71,3.45,2.51,3.59c0.22,0.07,1.38,0.18,3.49,0.33C122.8,74.24,123.49,74.56,123.49,75.14z M101.35,57.94l-7.09-18.62
	c-1.75,4.36-4.14,10.56-7.2,18.62H101.35z"/>
<path class="st0" d="M172.73,60.66c0,0.36-0.65,0.58-1.96,0.65l-3.49,0.11c-0.36,0.07-0.65,0.4-0.87,0.98
	c-0.15,0.58-0.22,1.89-0.22,3.92v4.36c-4.8,3.92-10.33,5.88-16.58,5.88c-8,0-14.36-2.25-19.09-6.75
	c-4.73-4.57-7.09-10.64-7.09-18.19c0-7.84,2.29-14.16,6.87-18.95c4.65-4.86,10.76-7.3,18.32-7.3c3.93,0,8.14,1.23,12.65,3.7
	c0.36,0.22,0.69,0.33,0.98,0.33c0.58,0,0.98-0.47,1.2-1.42c0.44-1.31,0.94-1.96,1.53-1.96c0.58,0,0.87,0.29,0.87,0.87
	c0-0.15-0.07,0.47-0.22,1.85c-0.22,2.11-0.33,6.28-0.33,12.52c0,1.67-0.44,2.5-1.31,2.5c-0.65,0-0.98-0.44-0.98-1.31
	c-0.14-4.72-1.49-8.46-4.03-11.22c-2.47-2.83-5.71-4.25-9.71-4.25c-4.87,0-8.69,2.18-11.45,6.53s-4.14,10.31-4.14,17.86
	c0,7.26,1.38,13,4.14,17.21c2.84,4.21,6.65,6.32,11.45,6.32c4.36,0,7.05-1.38,8.07-4.14c0.36-0.94,0.54-2.47,0.54-4.57
	c0-2.61-0.18-4.07-0.54-4.36c-0.29-0.36-1.64-0.54-4.04-0.54h-0.76c-0.36,0.07-0.69,0.11-0.98,0.11c-0.58,0-0.87-0.25-0.87-0.76
	c0-0.65,0.87-0.98,2.62-0.98h2.83c0.66,0,1.45,0,2.4,0c1.02,0.07,1.56,0.11,1.64,0.11c5.09,0,8-0.04,8.72-0.11h1.96
	C172.11,59.68,172.73,60.01,172.73,60.66z"/>
<path class="st0" d="M224.51,74.93c0,0.51-1.09,0.76-3.27,0.76c-0.07,0-0.44-0.04-1.09-0.11c-0.65,0-1.27,0-1.85,0h-8.07
	c-1.24,0-2.04,0.04-2.4,0.11l-1.74,0.11c-1.6,0.07-2.4-0.18-2.4-0.76c0-0.44,0.62-0.69,1.85-0.76c2.4-0.07,3.67-0.4,3.82-0.98
	c0.15-0.36,0.22-1.56,0.22-3.59V49.77h-20.83V72.2c0.15,0.8,0.44,1.31,0.87,1.52c0.51,0.22,1.78,0.36,3.82,0.44
	c0.8,0,1.2,0.25,1.2,0.76s-0.73,0.76-2.18,0.76h-1.75c-1.02-0.07-2.51-0.11-4.47-0.11l-10.69,0.11c-1.09,0-1.64-0.25-1.64-0.76
	s1.05-0.8,3.16-0.87c1.6-0.07,2.47-0.51,2.62-1.31V32.02c0-2.03-0.04-3.12-0.11-3.27c-0.07-0.58-0.73-0.87-1.96-0.87
	c-2.47-0.07-3.71-0.44-3.71-1.09c0-0.44,0.51-0.65,1.53-0.65h0.87c1.53,0,2.98,0.04,4.36,0.11c1.45,0.07,2.47,0.11,3.05,0.11
	c0.8,0,2.25-0.04,4.36-0.11c2.18-0.07,3.45-0.11,3.82-0.11h0.76c1.24,0,1.85,0.29,1.85,0.87c0,0.65-0.98,0.94-2.94,0.87
	c-1.24,0-2.04,0.15-2.4,0.44c-0.29,0.22-0.44,0.94-0.44,2.18V47.7h20.83V32.67c0-2.32-0.07-3.63-0.22-3.92
	c-0.15-0.87-0.87-1.23-2.18-1.09l-2.07,0.22c-0.95-0.15-1.42-0.44-1.42-0.87c0-0.58,0.76-0.87,2.29-0.87h2.18c0.8,0,2.22,0,4.25,0
	c1.96,0.07,3.38,0.11,4.25,0.11c1.75,0,2.95-0.04,3.6-0.11h1.53c1.75,0,2.62,0.25,2.62,0.76c0,0.58-0.51,0.87-1.53,0.87
	c-0.95,0-1.75,0.04-2.4,0.11c-0.95,0-1.49,0.18-1.64,0.54c-0.15,0.36-0.22,1.52-0.22,3.48v37.68c0,2.47,0.18,3.85,0.54,4.14
	c0.36,0.22,1.64,0.33,3.82,0.33C224.01,74.05,224.51,74.34,224.51,74.93z"/>
<path class="st0" d="M286,74.93c0,0.58-0.65,0.87-1.96,0.87c0.29,0-0.07,0-1.09,0c-1.02-0.07-2.65-0.11-4.91-0.11h-3.82
	c-1.09,0-2.51,0.04-4.25,0.11c-1.74,0-3.35,0-4.8,0h-0.55c-1.31,0-1.96-0.29-1.96-0.87c0-0.36,0.14-0.58,0.44-0.65
	c0.36-0.07,1.6-0.15,3.71-0.22c1.53-0.07,2.4-0.29,2.62-0.65c0.29-0.36,0.44-1.71,0.44-4.03V34.41c-1.31,3.63-3.42,9.62-6.33,17.97
	c-1.67,5.01-3.78,11.47-6.33,19.38c-0.73,2.25-1.31,3.38-1.75,3.38c-0.58,0-1.2-0.98-1.85-2.94c-1.67-5.01-6.58-17.42-14.72-37.24
	V72.2c0,0.94,0.36,1.52,1.09,1.74c1.02,0.07,2.33,0.11,3.93,0.11c0.94,0,1.42,0.25,1.42,0.76c0,0.58-0.73,0.87-2.18,0.87h-1.53
	c-0.65-0.07-1.42-0.11-2.29-0.11l-6.22,0.11c-0.65,0.07-1.45,0.11-2.4,0.11c-1.09,0-1.64-0.29-1.64-0.87c0-0.51,1.16-0.8,3.49-0.87
	c1.6-0.07,2.51-0.25,2.73-0.54c0.29-0.36,0.44-1.56,0.44-3.59V33c0-2.47-0.25-3.92-0.76-4.36c-0.44-0.44-2-0.69-4.69-0.76
	c-0.95,0-1.42-0.29-1.42-0.87c0-0.44,0.62-0.69,1.85-0.76c1.24-0.07,5.6-0.11,13.09-0.11l0.44,1.2c0.36,0.8,0.84,1.92,1.42,3.38
	l2.62,6.53c0.73,1.82,1.96,4.86,3.71,9.15l5.78,14.27c1.09-3.48,1.93-6.06,2.51-7.73l9.38-26.79h8.29l4.8-0.11
	c1.89-0.07,2.83,0.25,2.83,0.98c0,0.58-0.69,0.91-2.07,0.98c-1.89,0.07-3.02,0.15-3.38,0.22c-1.02,0.36-1.53,1.16-1.53,2.4v38.44
	c0,2.9,0.26,4.46,0.76,4.68c0.51,0.22,2.18,0.33,5.02,0.33C285.45,74.05,286,74.34,286,74.93z"/>
<path class="st0" d="M330.91,63.93c0,0.07-0.04,0.54-0.11,1.42c-0.07,0.8-0.11,1.52-0.11,2.18l-0.11,6.21c0,0.73,0.04,1.52,0.11,2.4
	l-18.11-0.33l-20.72,0.11c-1.53,0-2.29-0.25-2.29-0.76c0-0.58,0.44-0.87,1.31-0.87c2.33,0,3.67-0.15,4.03-0.44
	c0.44-0.36,0.66-1.56,0.66-3.59V32.78c0-2.98-0.26-4.54-0.76-4.68c-0.51-0.22-1.78-0.33-3.82-0.33c-0.87,0-1.31-0.25-1.31-0.76
	c0-0.58,0.47-0.87,1.42-0.87h2.62c0.73,0,1.45,0,2.18,0c0.8,0.07,1.2,0.11,1.2,0.11h2.73c0.36,0,2.18-0.04,5.45-0.11
	c3.35,0,7.34,0,12,0h6.43c1.89,0,3.45-0.07,4.69-0.22v0.76l0.11,1.63c0.15,1.09,0.44,4.36,0.87,9.8c0.07,0.36,0.11,0.8,0.11,1.31
	c0,0.94-0.26,1.42-0.76,1.42c-0.65,0-1.13-0.73-1.42-2.18c-1.02-5.52-2.94-8.75-5.78-9.69c-1.6-0.51-5.38-0.76-11.34-0.76h-5.56
	v20.36h2.62c4.65,0,7.52-0.36,8.62-1.09c1.09-0.8,1.82-2.9,2.18-6.32c0.22-2.03,0.65-3.05,1.31-3.05c0.73,0,1.09,0.73,1.09,2.18
	c0,0.87-0.07,2.21-0.22,4.03c-0.07,1.81-0.11,3.19-0.11,4.14c0,4.72,0.11,7.95,0.33,9.69c0.07,0.58,0.11,1.05,0.11,1.42
	c0,1.16-0.36,1.74-1.09,1.74c-0.65,0-1.09-0.91-1.31-2.72c-0.44-3.92-1.16-6.24-2.18-6.97c-1.02-0.8-3.89-1.2-8.62-1.2h-2.73v23.52
	c10.69-0.07,16.98-0.36,18.87-0.87c2.91-0.8,4.62-4.28,5.13-10.45c0.07-1.09,0.47-1.63,1.2-1.63
	C330.54,60.99,330.91,61.97,330.91,63.93z"/>
<path class="st0" d="M385.88,74.93c0,0.51-1.09,0.76-3.27,0.76c-0.07,0-0.44-0.04-1.09-0.11c-0.65,0-1.27,0-1.85,0h-8.07
	c-1.24,0-2.04,0.04-2.4,0.11l-1.74,0.11c-1.6,0.07-2.4-0.18-2.4-0.76c0-0.44,0.62-0.69,1.85-0.76c2.4-0.07,3.67-0.4,3.82-0.98
	c0.14-0.36,0.22-1.56,0.22-3.59V49.77H350.1V72.2c0.14,0.8,0.44,1.31,0.87,1.52c0.51,0.22,1.78,0.36,3.82,0.44
	c0.8,0,1.2,0.25,1.2,0.76s-0.73,0.76-2.18,0.76h-1.74c-1.02-0.07-2.51-0.11-4.47-0.11l-10.69,0.11c-1.09,0-1.64-0.25-1.64-0.76
	s1.05-0.8,3.16-0.87c1.6-0.07,2.47-0.51,2.62-1.31V32.02c0-2.03-0.04-3.12-0.11-3.27c-0.07-0.58-0.73-0.87-1.96-0.87
	c-2.47-0.07-3.71-0.44-3.71-1.09c0-0.44,0.51-0.65,1.53-0.65h0.87c1.53,0,2.98,0.04,4.36,0.11c1.45,0.07,2.47,0.11,3.05,0.11
	c0.8,0,2.25-0.04,4.36-0.11c2.18-0.07,3.45-0.11,3.82-0.11h0.76c1.24,0,1.85,0.29,1.85,0.87c0,0.65-0.98,0.94-2.95,0.87
	c-1.24,0-2.04,0.15-2.4,0.44c-0.29,0.22-0.44,0.94-0.44,2.18V47.7h20.83V32.67c0-2.32-0.07-3.63-0.22-3.92
	c-0.15-0.87-0.87-1.23-2.18-1.09l-2.07,0.22c-0.95-0.15-1.42-0.44-1.42-0.87c0-0.58,0.76-0.87,2.29-0.87h2.18c0.8,0,2.22,0,4.25,0
	c1.96,0.07,3.38,0.11,4.25,0.11c1.74,0,2.94-0.04,3.6-0.11h1.53c1.75,0,2.62,0.25,2.62,0.76c0,0.58-0.51,0.87-1.53,0.87
	c-0.94,0-1.74,0.04-2.4,0.11c-0.95,0-1.49,0.18-1.64,0.54c-0.15,0.36-0.22,1.52-0.22,3.48v37.68c0,2.47,0.18,3.85,0.55,4.14
	c0.36,0.22,1.64,0.33,3.82,0.33C385.37,74.05,385.88,74.34,385.88,74.93z"/>
</svg>
